<svg width="109" height="32" viewBox="0 0 109 32" fill="none" xmlns="http://www.w3.org/2000/svg">
<g clip-path="url(#clip0_1164_528)">
<path d="M14.96 11.7899L15.24 13.3099H10.56V25.3899H8.62V13.3099H4.2V11.7899H14.96ZM19.5653 25.3899H17.6453V15.6899H18.7253L19.3453 17.2699C19.5986 17.0566 19.912 16.8299 20.2853 16.5899C20.6586 16.3366 21.0453 16.1232 21.4453 15.9499C21.8586 15.7766 22.2386 15.6899 22.5853 15.6899L23.0053 17.2299C22.6586 17.2299 22.272 17.3166 21.8453 17.4899C21.432 17.6499 21.0253 17.8632 20.6253 18.1299C20.2386 18.3832 19.8853 18.6632 19.5653 18.9699V25.3899ZM27.3431 25.3899H25.4031V15.6899H27.3431V25.3899ZM26.3431 13.9499C26.0098 13.9499 25.7298 13.8366 25.5031 13.6099C25.2765 13.3832 25.1631 13.0966 25.1631 12.7499C25.1631 12.4166 25.2765 12.1366 25.5031 11.9099C25.7298 11.6699 26.0098 11.5499 26.3431 11.5499C26.6765 11.5499 26.9631 11.6632 27.2031 11.8899C27.4431 12.1166 27.5631 12.4032 27.5631 12.7499C27.5631 13.0832 27.4431 13.3699 27.2031 13.6099C26.9631 13.8366 26.6765 13.9499 26.3431 13.9499ZM32.6591 25.3899H30.7391V15.6899H32.0791L32.4191 16.9699C32.7524 16.6632 33.1191 16.3899 33.5191 16.1499C33.9191 15.9099 34.3324 15.7232 34.7591 15.5899C35.1857 15.4432 35.5991 15.3699 35.9991 15.3699C36.7057 15.3699 37.2791 15.5299 37.7191 15.8499C38.1724 16.1566 38.5057 16.5832 38.7191 17.1299C38.9324 17.6766 39.0391 18.2966 39.0391 18.9899V25.3899H37.1191V19.1699C37.1191 18.7299 37.0724 18.3499 36.9791 18.0299C36.8857 17.7099 36.7257 17.4632 36.4991 17.2899C36.2857 17.1032 35.9857 17.0099 35.5991 17.0099C35.3057 17.0099 34.9924 17.0832 34.6591 17.2299C34.3257 17.3632 33.9857 17.5499 33.6391 17.7899C33.3057 18.0166 32.9791 18.2699 32.6591 18.5499V25.3899ZM38.8791 18.5499L38.6391 16.9699C38.9724 16.6632 39.3391 16.3899 39.7391 16.1499C40.1391 15.9099 40.5524 15.7232 40.9791 15.5899C41.4057 15.4432 41.8191 15.3699 42.2191 15.3699C42.9257 15.3699 43.4991 15.5299 43.9391 15.8499C44.3924 16.1566 44.7257 16.5832 44.9391 17.1299C45.1524 17.6766 45.2591 18.2966 45.2591 18.9899V25.3899H43.3391V19.1699C43.3391 18.7299 43.2924 18.3499 43.1991 18.0299C43.1057 17.7099 42.9457 17.4632 42.7191 17.2899C42.5057 17.1032 42.2057 17.0099 41.8191 17.0099C41.5257 17.0099 41.2124 17.0832 40.8791 17.2299C40.5457 17.3632 40.2057 17.5499 39.8591 17.7899C39.5257 18.0166 39.1991 18.2699 38.8791 18.5499ZM58.335 11.7899L58.615 13.3099H53.935V25.3899H51.995V13.3099H47.575V11.7899H58.335ZM62.9603 25.3899H61.0203V15.6899H62.9603V25.3899ZM61.9603 13.9499C61.627 13.9499 61.347 13.8366 61.1203 13.6099C60.8936 13.3832 60.7803 13.0966 60.7803 12.7499C60.7803 12.4166 60.8936 12.1366 61.1203 11.9099C61.347 11.6699 61.627 11.5499 61.9603 11.5499C62.2936 11.5499 62.5803 11.6632 62.8203 11.8899C63.0603 12.1166 63.1803 12.4032 63.1803 12.7499C63.1803 13.0832 63.0603 13.3699 62.8203 13.6099C62.5803 13.8366 62.2936 13.9499 61.9603 13.9499ZM68.2763 25.3899H66.3563V15.6899H67.6963L68.0363 16.9699C68.3696 16.6632 68.7363 16.3899 69.1363 16.1499C69.5363 15.9099 69.9496 15.7232 70.3763 15.5899C70.8029 15.4432 71.2163 15.3699 71.6163 15.3699C72.3229 15.3699 72.8963 15.5299 73.3363 15.8499C73.7896 16.1566 74.1229 16.5832 74.3363 17.1299C74.5496 17.6766 74.6563 18.2966 74.6563 18.9899V25.3899H72.7363V19.1699C72.7363 18.7299 72.6896 18.3499 72.5963 18.0299C72.5029 17.7099 72.3429 17.4632 72.1163 17.2899C71.9029 17.1032 71.6029 17.0099 71.2163 17.0099C70.9229 17.0099 70.6096 17.0832 70.2763 17.2299C69.9429 17.3632 69.6029 17.5499 69.2563 17.7899C68.9229 18.0166 68.5963 18.2699 68.2763 18.5499V25.3899ZM74.4963 18.5499L74.2563 16.9699C74.5896 16.6632 74.9563 16.3899 75.3563 16.1499C75.7563 15.9099 76.1696 15.7232 76.5963 15.5899C77.0229 15.4432 77.4363 15.3699 77.8363 15.3699C78.5429 15.3699 79.1163 15.5299 79.5563 15.8499C80.0096 16.1566 80.3429 16.5832 80.5563 17.1299C80.7696 17.6766 80.8763 18.2966 80.8763 18.9899V25.3899H78.9563V19.1699C78.9563 18.7299 78.9096 18.3499 78.8163 18.0299C78.7229 17.7099 78.5629 17.4632 78.3363 17.2899C78.1229 17.1032 77.8229 17.0099 77.4363 17.0099C77.1429 17.0099 76.8296 17.0832 76.4963 17.2299C76.1629 17.3632 75.8229 17.5499 75.4763 17.7899C75.1429 18.0166 74.8163 18.2699 74.4963 18.5499ZM92.4722 20.9699H85.5922C85.6455 21.5566 85.7855 22.0832 86.0122 22.5499C86.2522 23.0166 86.6055 23.3832 87.0722 23.6499C87.5389 23.9032 88.1322 24.0299 88.8522 24.0299C89.4255 24.0299 89.9189 23.9499 90.3322 23.7899C90.7589 23.6299 91.2389 23.4232 91.7722 23.1699L92.3722 24.5699C92.0522 24.7566 91.7055 24.9366 91.3322 25.1099C90.9589 25.2699 90.5655 25.3966 90.1522 25.4899C89.7389 25.5832 89.3055 25.6299 88.8522 25.6299C87.7055 25.6299 86.7389 25.4166 85.9522 24.9899C85.1655 24.5632 84.5722 23.9699 84.1722 23.2099C83.7855 22.4366 83.5922 21.5432 83.5922 20.5299C83.5922 19.5166 83.7789 18.6299 84.1522 17.8699C84.5255 17.1099 85.0589 16.5166 85.7522 16.0899C86.4455 15.6499 87.2722 15.4299 88.2322 15.4299C89.2455 15.4299 90.0589 15.6766 90.6722 16.1699C91.2989 16.6632 91.7522 17.3166 92.0322 18.1299C92.3255 18.9432 92.4722 19.8232 92.4722 20.7699V20.9699ZM85.6322 19.6699H90.6122C90.5322 19.1366 90.3922 18.6766 90.1922 18.2899C89.9922 17.9032 89.7255 17.6032 89.3922 17.3899C89.0722 17.1766 88.6655 17.0699 88.1722 17.0699C87.6789 17.0699 87.2522 17.1766 86.8922 17.3899C86.5322 17.6032 86.2455 17.9032 86.0322 18.2899C85.8322 18.6766 85.6989 19.1366 85.6322 19.6699Z" fill="#B8952E"/>
<g clip-path="url(#clip1_1164_528)">
<path d="M103.871 9.15631C102.868 10.028 102.759 11.5338 103.628 12.5196C104.496 13.5053 106.013 13.5977 107.016 12.726C108.019 11.8543 108.128 10.3485 107.259 9.36274C106.391 8.377 104.874 8.28458 103.871 9.15631Z" stroke="#B8952E" stroke-width="1.5948" stroke-linecap="round" stroke-linejoin="round"/>
<path d="M103.049 10.7953L98.6675 10.5283" stroke="#B8952E" stroke-width="1.5948" stroke-linecap="round" stroke-linejoin="round"/>
<path d="M98.0183 19.4969L98.9824 6.1785" stroke="#B8952E" stroke-width="1.5948" stroke-linecap="round" stroke-linejoin="round"/>
<path d="M97.5821 2.017C96.5793 2.88873 96.4703 4.3945 97.3386 5.38024C98.207 6.36598 99.7239 6.4584 100.727 5.58668C101.729 4.71495 101.838 3.20917 100.97 2.22343C100.102 1.23769 98.5849 1.14527 97.5821 2.017Z" stroke="#B8952E" stroke-width="1.5948" stroke-linecap="round" stroke-linejoin="round"/>
<path d="M95.5053 10.3356L89.6327 9.97778" stroke="#B8952E" stroke-width="1.5948" stroke-linecap="round" stroke-linejoin="round"/>
</g>
</g>
<defs>
<clipPath id="clip0_1164_528">
<rect width="109" height="32" fill="white"/>
</clipPath>
<clipPath id="clip1_1164_528">
<rect width="19.2471" height="19.0288" fill="white" transform="matrix(-0.75471 0.656059 -0.661015 -0.750373 112.22 11.3541)"/>
</clipPath>
</defs>
</svg>
